<?xml version="1.0" standalone="no"?>
<!DOCTYPE svg PUBLIC "-//W3C//DTD SVG 20010904//EN"
 "http://www.w3.org/TR/2001/REC-SVG-20010904/DTD/svg10.dtd">
<svg version="1.0" xmlns="http://www.w3.org/2000/svg"
 width="533.000000pt" height="533.000000pt" viewBox="0 0 533.000000 533.000000"
 preserveAspectRatio="xMidYMid meet">
<metadata>
Created by potrace 1.16, written by Peter Selinger 2001-2019
</metadata>
<g transform="translate(0.000000,533.000000) scale(0.100000,-0.100000)"
fill="#0c33b3" stroke="none">
<path d="M1935 3804 c28 -15 54 -30 60 -35 5 -5 20 -9 35 -9 14 0 32 -5 40
-10 13 -8 12 -10 -4 -10 -18 0 -18 -2 4 -25 13 -14 41 -30 62 -35 38 -11 52
-30 22 -30 -11 0 -8 -10 15 -37 34 -41 34 -56 0 -24 -80 74 -213 38 -317 -87
l-42 -50 55 23 c31 12 66 32 79 44 27 25 38 27 29 4 -5 -14 -1 -15 26 -10 18
4 46 17 63 28 30 21 30 21 24 2 -6 -19 -1 -21 58 -25 35 -3 68 -8 74 -12 5 -3
-2 -38 -19 -86 -32 -89 -69 -262 -69 -319 l0 -38 -79 -12 c-44 -6 -108 -21
-142 -33 -49 -17 -64 -18 -67 -8 -17 51 -89 175 -122 211 l-41 44 40 -58 c21
-31 52 -88 67 -125 16 -37 32 -70 37 -73 9 -7 -16 -35 -46 -54 -11 -6 -15 -17
-11 -31 5 -20 7 -20 87 12 147 59 319 93 477 95 68 1 79 3 55 10 -16 5 -70 13
-120 17 l-90 7 -3 45 c-7 98 45 366 74 377 8 3 36 -6 63 -20 33 -16 51 -21 54
-13 2 6 10 0 17 -14 16 -31 40 -49 56 -43 6 2 14 -6 18 -19 3 -13 20 -39 36
-58 l30 -35 -6 30 c-3 17 -19 57 -34 91 -34 74 -74 106 -136 108 -36 1 -41 3
-28 13 8 6 38 14 65 18 51 7 57 13 37 33 -18 18 13 16 38 -3 10 -8 41 -15 67
-15 46 0 47 1 36 21 -12 23 -1 20 33 -9 9 -8 45 -20 80 -27 35 -8 72 -17 83
-20 32 -10 -61 69 -126 108 -143 84 -257 69 -340 -46 l-29 -40 0 52 c0 81 -41
147 -117 185 -45 23 -149 46 -208 46 l-50 0 50 -26z"/>
<path d="M3263 3610 c-57 -26 -63 -32 -63 -59 l0 -31 68 26 c54 20 83 25 152
24 47 0 103 -5 125 -10 51 -12 57 -4 20 26 -74 60 -205 71 -302 24z"/>
<path d="M1755 3551 c-82 -39 -126 -87 -132 -144 -3 -25 0 -54 7 -66 17 -33 7
-35 -35 -6 -65 43 -137 31 -199 -34 -25 -26 -27 -33 -16 -46 11 -14 14 -13 27
5 14 20 40 29 27 9 -11 -18 38 0 64 24 18 17 22 17 22 5 0 -13 9 -15 48 -11
l47 5 -31 -20 c-30 -19 -59 -71 -52 -92 6 -18 48 19 48 42 0 12 3 18 7 15 4
-4 19 5 34 19 16 15 34 24 43 21 10 -4 13 -1 10 7 -4 10 10 18 45 27 27 7 48
16 45 20 -2 4 14 5 36 2 25 -4 40 -2 40 5 0 7 10 6 28 -3 15 -7 43 -15 62 -19
l35 -6 -30 25 c-99 83 -209 84 -251 4 -22 -44 -30 -28 -10 22 14 34 15 44 4
50 -11 7 -11 9 0 9 19 0 62 50 56 65 -3 7 3 16 13 19 22 7 92 76 77 76 -5 0
-36 -13 -69 -29z"/>
<path d="M3322 3511 c-67 -23 -74 -30 -70 -73 l3 -35 60 20 c49 16 85 20 190
20 72 -1 152 -6 179 -12 54 -13 65 -9 46 14 -59 71 -288 108 -408 66z"/>
<path d="M3650 3373 c-89 -7 -295 -44 -411 -73 -203 -52 -403 -122 -609 -216
l-95 -44 71 0 c60 0 98 9 250 60 257 85 529 150 631 150 34 0 34 0 -52 -71
-47 -39 -84 -73 -82 -75 2 -2 48 3 103 11 54 9 165 18 246 22 l147 6 67 111
c37 61 69 114 71 119 4 7 -247 7 -337 0z"/>
<path d="M3260 3174 c-109 -25 -335 -89 -430 -122 -65 -23 -74 -20 160 -56
345 -53 722 -89 740 -70 11 11 90 161 90 170 0 23 -537 -35 -583 -63 -25 -14
18 34 87 99 39 37 64 67 56 67 -8 0 -62 -11 -120 -25z"/>
<path d="M3845 3010 c-15 -6 -6 -9 32 -9 92 -2 134 -41 80 -75 -56 -37 -146
-50 -342 -50 -200 0 -303 9 -580 50 -260 39 -290 42 -432 50 l-133 7 0 -62 c0
-45 4 -61 14 -61 42 0 245 -25 411 -50 340 -52 563 -62 771 -35 161 21 266 57
321 110 49 48 54 75 18 110 -20 21 -33 25 -82 24 -32 0 -67 -4 -78 -9z"/>
<path d="M3895 2765 c-63 -40 -184 -73 -304 -85 -128 -13 -269 -5 -681 39
-146 16 -304 32 -352 35 l-88 6 0 -54 c0 -61 -12 -54 123 -75 37 -6 95 -15
130 -21 187 -30 311 -42 478 -47 268 -8 426 15 564 84 62 31 141 90 161 120
18 28 18 28 -31 -2z"/>
<path d="M1540 1500 c0 -17 7 -20 50 -20 l50 0 0 -140 0 -140 35 0 35 0 0 140
0 140 50 0 c43 0 50 3 50 20 0 19 -7 20 -135 20 -128 0 -135 -1 -135 -20z"/>
<path d="M1950 1360 l0 -160 35 0 35 0 0 65 0 65 35 0 c33 0 39 -5 77 -65 40
-62 44 -65 81 -65 l39 0 -18 28 c-9 15 -28 44 -42 64 l-24 38 31 29 c41 38 44
99 6 136 -23 24 -30 25 -140 25 l-115 0 0 -160z"/>
<path d="M2431 1372 c-30 -81 -56 -153 -59 -159 -3 -9 7 -13 32 -13 33 0 36 3
47 40 l12 41 65 -3 c65 -3 65 -3 77 -38 10 -30 16 -35 48 -38 l35 -3 -34 93
c-19 51 -46 123 -60 161 l-26 67 -41 0 -42 0 -54 -148z"/>
<path d="M2772 1508 c3 -7 29 -79 58 -160 l53 -148 36 0 36 0 55 152 c30 83
57 155 58 160 2 4 -12 8 -31 8 l-35 0 -32 -102 c-55 -172 -46 -170 -93 -25
l-41 127 -34 0 c-23 0 -33 -4 -30 -12z"/>
<path d="M3210 1360 l0 -160 130 0 130 0 0 25 c0 24 -1 24 -97 27 l-98 3 -3
43 -3 42 90 0 c90 0 91 0 91 25 0 25 -1 25 -91 25 l-90 0 3 43 3 42 93 3 c84
2 92 4 92 22 0 19 -7 20 -125 20 l-125 0 0 -160z"/>
<path d="M3620 1360 l0 -160 120 0 120 0 0 25 c0 25 -1 25 -85 25 l-85 0 0
119 c0 66 -3 126 -6 135 -4 10 -18 16 -35 16 l-29 0 0 -160z"/>
</g>
</svg>
