<?xml version="1.0" standalone="no"?>
<!DOCTYPE svg PUBLIC "-//W3C//DTD SVG 20010904//EN"
 "http://www.w3.org/TR/2001/REC-SVG-20010904/DTD/svg10.dtd">
<svg version="1.0" xmlns="http://www.w3.org/2000/svg"
 width="276.000000pt" height="163.000000pt" viewBox="0 0 276.000000 163.000000"
 preserveAspectRatio="xMidYMid meet">
<metadata>
Created by potrace 1.16, written by Peter Selinger 2001-2019
</metadata>
<g transform="translate(0.000000,163.000000) scale(0.100000,-0.100000)"
fill="#0c33b3" stroke="none">
<path d="M645 1274 c28 -15 54 -30 59 -35 6 -5 21 -9 35 -9 15 0 33 -5 41 -10
13 -8 12 -10 -4 -10 -18 0 -18 -2 4 -25 13 -14 41 -30 62 -35 38 -11 52 -30
22 -30 -11 0 -8 -10 15 -37 34 -41 34 -56 0 -24 -80 74 -213 38 -317 -87 l-42
-50 55 23 c31 12 66 32 79 44 27 25 38 27 29 4 -5 -14 -1 -15 26 -10 18 4 46
17 63 28 30 21 30 21 24 2 -6 -19 -1 -21 58 -25 35 -3 68 -8 74 -12 5 -3 -2
-38 -19 -86 -32 -89 -69 -262 -69 -319 l0 -38 -79 -12 c-44 -6 -108 -21 -142
-33 -49 -17 -64 -18 -67 -8 -17 51 -89 175 -122 211 l-41 44 40 -58 c21 -31
52 -88 67 -125 16 -37 32 -70 37 -73 9 -7 -16 -35 -46 -54 -11 -6 -15 -17 -11
-31 5 -20 7 -20 87 12 147 59 319 93 477 95 68 1 79 3 55 10 -16 5 -70 13
-120 17 l-90 7 -3 45 c-7 98 45 366 74 377 8 3 36 -6 63 -20 33 -16 51 -21 54
-13 2 6 10 0 17 -14 16 -31 40 -49 56 -43 6 2 14 -6 18 -19 3 -13 20 -39 36
-58 l30 -35 -6 30 c-3 17 -19 57 -34 91 -34 74 -74 106 -136 108 -36 1 -41 3
-28 13 8 6 38 14 65 18 51 7 57 13 37 33 -18 18 13 16 38 -3 10 -8 41 -15 67
-15 46 0 47 1 36 21 -12 23 -1 20 33 -9 9 -8 45 -20 80 -27 35 -8 72 -17 83
-20 32 -10 -61 69 -126 108 -143 84 -257 69 -340 -46 l-29 -40 0 52 c0 81 -41
147 -117 185 -45 23 -149 46 -208 46 l-50 0 50 -26z"/>
<path d="M1973 1080 c-57 -26 -63 -32 -63 -59 l0 -31 68 26 c54 20 83 25 152
24 47 0 103 -5 125 -10 51 -12 57 -4 20 26 -74 60 -205 71 -302 24z"/>
<path d="M465 1021 c-82 -39 -126 -87 -132 -144 -3 -25 0 -54 7 -66 17 -33 7
-35 -35 -6 -65 43 -137 31 -199 -34 -25 -26 -27 -33 -16 -46 11 -14 14 -13 27
5 14 20 40 29 27 9 -11 -18 38 0 64 24 18 17 22 17 22 5 0 -13 9 -15 48 -11
l47 5 -31 -20 c-30 -19 -59 -71 -52 -92 6 -18 48 19 48 42 0 12 3 18 7 15 4
-4 19 5 34 19 16 15 34 24 43 21 10 -4 13 -1 10 7 -4 10 10 18 45 27 27 7 48
16 45 20 -2 4 14 5 36 2 25 -4 40 -2 40 5 0 7 10 6 28 -3 15 -7 43 -15 62 -19
l35 -6 -30 25 c-99 83 -209 84 -251 4 -22 -44 -30 -28 -10 22 14 34 15 44 4
50 -11 7 -11 9 0 9 19 0 62 50 56 65 -3 7 3 16 13 19 22 7 92 76 77 76 -5 0
-36 -13 -69 -29z"/>
<path d="M2032 981 c-67 -23 -74 -30 -70 -73 l3 -35 60 20 c49 16 85 20 190
20 72 -1 152 -6 179 -12 54 -13 65 -9 46 14 -59 71 -288 108 -408 66z"/>
<path d="M2360 843 c-89 -7 -295 -44 -411 -73 -203 -52 -403 -122 -609 -216
l-95 -44 71 0 c60 0 98 9 250 60 257 85 529 150 631 150 34 0 34 0 -52 -71
-47 -39 -84 -73 -82 -75 2 -2 48 3 103 11 54 9 165 18 246 22 l147 6 67 111
c37 61 69 114 71 119 4 7 -247 7 -337 0z"/>
<path d="M1970 644 c-109 -25 -335 -89 -430 -122 -65 -23 -74 -20 160 -56 345
-53 722 -89 740 -70 11 11 90 161 90 170 0 23 -537 -35 -583 -63 -25 -14 18
34 87 99 39 37 64 67 56 67 -8 0 -62 -11 -120 -25z"/>
<path d="M2555 480 c-15 -6 -6 -9 32 -9 92 -2 134 -41 80 -75 -56 -37 -146
-50 -342 -50 -200 0 -303 9 -580 50 -260 39 -290 42 -432 50 l-133 7 0 -62 c0
-45 4 -61 14 -61 42 0 245 -25 411 -50 340 -52 563 -62 771 -35 161 21 266 57
321 110 49 48 54 75 18 110 -20 21 -33 25 -82 24 -32 0 -67 -4 -78 -9z"/>
<path d="M2605 235 c-63 -40 -184 -73 -304 -85 -128 -13 -269 -5 -681 39 -146
16 -304 32 -352 35 l-88 6 0 -54 c0 -61 -12 -54 123 -75 37 -6 95 -15 130 -21
187 -30 311 -42 478 -47 268 -8 426 15 564 84 62 31 141 90 161 120 18 28 18
28 -31 -2z"/>
</g>
</svg>
