<?xml version="1.0" standalone="no"?>
<!DOCTYPE svg PUBLIC "-//W3C//DTD SVG 20010904//EN"
 "http://www.w3.org/TR/2001/REC-SVG-20010904/DTD/svg10.dtd">
<svg version="1.0" xmlns="http://www.w3.org/2000/svg"
 width="1332.000000pt" height="1364.000000pt" viewBox="0 0 1332.000000 1364.000000"
 preserveAspectRatio="xMidYMid meet">
<metadata>
Created by potrace 1.16, written by Peter Selinger 2001-2019
</metadata>
<g transform="translate(0.000000,1364.000000) scale(0.100000,-0.100000)"
fill="#000000" stroke="none">
<path d="M6280 13233 c-424 -28 -703 -66 -1035 -139 -803 -178 -1538 -490
-2200 -935 -939 -630 -1670 -1458 -2171 -2459 -743 -1485 -885 -3170 -400
-4755 52 -171 165 -477 179 -486 5 -4 7 -11 3 -17 -3 -6 -2 -13 3 -16 5 -3 12
-17 15 -31 4 -14 20 -55 36 -91 17 -35 30 -67 30 -70 0 -19 173 -353 185 -358
8 -3 15 -11 15 -18 0 -9 -3 -9 -11 2 -9 12 -10 12 -5 -3 3 -10 6 -21 6 -23 0
-3 5 -2 10 1 6 3 10 -3 10 -14 0 -12 7 -21 15 -21 8 0 15 -5 15 -11 0 -5 -4
-7 -10 -4 -5 3 -10 2 -10 -4 0 -5 4 -12 9 -15 5 -3 18 -23 29 -43 53 -103 82
-148 82 -129 0 4 -5 16 -10 27 -7 13 -7 19 0 19 5 0 10 -7 10 -15 0 -8 5 -15
10 -15 6 0 10 7 10 15 0 8 7 15 15 15 12 0 35 28 35 44 0 14 -19 4 -24 -12 -2
-9 -4 -3 -3 13 2 36 -33 114 -51 115 -7 0 -11 4 -7 10 6 10 -29 82 -38 74 -3
-3 -5 1 -4 8 2 17 -69 159 -76 152 -3 -3 -4 1 -4 8 1 7 -9 36 -22 63 -525
1108 -712 2365 -536 3600 143 1004 549 1999 1148 2815 648 881 1533 1597 2511
2029 676 300 1334 467 2096 533 215 19 792 15 1015 -6 1379 -130 2601 -655
3631 -1558 888 -779 1555 -1839 1884 -2993 110 -388 174 -737 222 -1215 20
-199 17 -854 -5 -1070 -57 -563 -147 -985 -314 -1480 -25 -74 -49 -144 -54
-155 -4 -11 -29 -74 -54 -140 -25 -66 -55 -140 -67 -165 -11 -25 -23 -54 -28
-65 -4 -11 -38 -82 -74 -157 -36 -75 -66 -141 -66 -147 0 -5 -6 -11 -12 -14
-10 -4 -10 -7 0 -18 6 -7 12 -18 12 -23 0 -6 -4 -4 -10 4 -11 18 -7 23 -68
-88 -59 -107 -68 -132 -51 -132 7 0 5 -8 -7 -21 -14 -16 -16 -22 -5 -28 10 -6
11 -22 6 -60 -4 -33 -3 -51 3 -51 14 0 26 38 23 70 -1 19 0 22 8 10 9 -12 11
-12 16 2 4 10 3 23 -1 29 -5 9 -2 10 9 6 9 -3 19 -2 22 3 4 6 1 10 -5 10 -6 0
3 14 20 30 22 21 29 36 25 50 -4 12 0 22 12 29 10 5 31 36 48 68 16 32 33 61
38 64 5 4 10 18 10 32 1 14 5 23 10 20 4 -2 10 9 13 26 4 17 10 31 15 31 5 0
9 5 9 12 0 6 8 20 17 30 9 10 16 32 16 49 0 16 4 25 8 18 10 -16 21 23 13 47
-4 14 -3 15 4 6 7 -10 12 -5 21 20 7 18 22 49 32 69 10 20 19 44 19 53 0 9 5
16 11 16 6 0 9 7 5 15 -3 8 -1 15 4 15 5 0 11 10 15 22 3 13 10 32 15 43 27
60 92 223 104 263 9 26 25 74 36 107 40 113 120 387 151 515 6 25 17 70 24
100 40 160 88 431 114 650 83 670 61 1349 -65 1990 -169 866 -497 1660 -980
2377 -142 211 -314 438 -445 588 -405 465 -829 841 -1309 1161 -954 637 -2032
1000 -3185 1074 -143 9 -600 11 -715 3z"/>
<path d="M3383 12048 c-16 -8 -23 -20 -23 -39 0 -25 -3 -27 -47 -31 -49 -5
-74 4 -52 17 8 6 10 4 4 -6 -5 -8 -4 -11 1 -6 4 4 9 18 10 31 1 20 -10 15
-105 -48 -462 -305 -931 -726 -1297 -1164 -784 -939 -1266 -2066 -1404 -3282
-35 -310 -45 -680 -27 -970 4 -69 10 -158 12 -199 3 -41 10 -90 16 -108 6 -18
8 -48 5 -66 -3 -17 -3 -26 0 -19 4 9 71 12 285 12 241 0 279 2 279 15 0 13
-24 15 -160 15 -153 0 -160 1 -160 20 0 17 7 20 40 20 22 0 40 -4 40 -10 0 -6
47 -10 120 -10 l120 0 0 30 c0 28 2 30 40 30 38 0 40 -2 40 -30 0 -28 2 -30
40 -30 36 0 40 -2 40 -25 0 -22 4 -25 40 -25 36 0 40 3 40 25 l0 25 160 0 160
0 0 50 0 50 40 0 c33 0 40 -3 40 -20 0 -17 7 -20 40 -20 32 0 40 4 40 19 0 15
11 19 61 25 34 3 88 6 120 6 46 0 59 3 59 15 0 12 16 15 80 15 64 0 80 -3 80
-15 0 -11 11 -15 40 -15 29 0 40 -4 40 -15 0 -11 11 -15 40 -15 29 0 40 4 40
15 0 12 16 15 80 15 64 0 80 3 80 15 0 11 11 15 40 15 l40 0 0 40 0 40 40 0
c29 0 40 -4 40 -15 0 -11 11 -15 40 -15 29 0 40 -4 40 -15 0 -11 11 -15 40
-15 29 0 40 4 40 15 0 11 11 15 40 15 29 0 40 4 40 15 0 12 -16 15 -80 15 -73
0 -80 2 -80 20 0 18 7 20 80 20 73 0 80 2 80 20 0 17 7 20 40 20 38 0 40 -2
40 -30 l0 -30 80 0 c64 0 80 3 80 15 0 11 11 15 40 15 25 0 40 -5 40 -12 0 -9
4 -8 10 2 24 37 14 40 -120 40 -125 0 -130 1 -130 21 0 19 5 20 125 17 117 -3
126 -2 131 17 4 10 2 21 -4 23 -8 2 -7 14 3 39 8 19 15 56 15 81 0 95 9 31 14
-103 10 -270 17 -431 22 -500 6 -101 23 -665 32 -1058 7 -360 4 -339 57 -369
24 -14 793 -12 829 1 48 19 50 28 53 274 1 128 7 374 13 547 6 173 17 512 23
754 15 492 10 466 89 466 27 0 38 4 38 15 0 11 -11 15 -40 15 l-40 0 0 40 0
40 80 0 c64 0 80 -3 80 -15 0 -12 14 -15 70 -15 l70 0 0 -59 c0 -38 4 -61 13
-64 9 -4 9 -6 0 -6 -15 -1 -18 -31 -3 -31 15 0 12 -48 -2 -53 -10 -3 -10 -7
-2 -18 7 -9 14 -90 17 -209 4 -107 13 -404 21 -660 8 -256 17 -577 20 -715 2
-137 8 -258 11 -268 4 -10 19 -23 32 -28 13 -5 198 -9 411 -9 401 0 433 3 440
42 5 26 -50 29 -476 26 l-392 -3 0 1340 c0 737 -3 1350 -6 1363 l-6 22 441 0
441 0 1 -1362 c1 -750 5 -1345 9 -1323 5 22 9 222 10 445 2 223 6 493 11 600
4 107 13 348 20 535 6 187 13 360 15 385 9 134 14 233 14 300 0 53 3 71 10 60
6 -10 10 -11 10 -2 0 7 15 12 40 12 39 0 40 1 40 35 l0 35 80 0 c73 0 80 2 80
20 0 18 -7 20 -80 20 -64 0 -80 3 -80 15 0 13 20 15 120 15 l120 0 0 -45 0
-45 80 0 c64 0 80 3 80 15 0 11 11 15 40 15 29 0 40 4 40 15 0 11 -11 15 -40
15 -33 0 -40 3 -40 20 0 18 7 20 73 21 39 0 96 4 125 8 29 4 55 4 58 -1 3 -4
0 -8 -5 -8 -24 0 -9 -29 17 -33 15 -2 -3 -5 -40 -6 -53 -1 -68 -4 -68 -16 0
-12 16 -15 80 -15 64 0 80 3 80 15 0 11 12 15 43 16 23 0 35 3 27 6 -8 3 -28
15 -44 26 l-28 20 7 -24 c6 -20 5 -22 -6 -11 -7 6 -22 12 -33 13 -19 0 -19 1
-3 8 18 6 18 7 0 22 -24 21 -133 79 -149 79 -7 0 -14 4 -16 8 -1 5 -41 29 -88
54 -124 66 -184 100 -190 108 -3 4 -16 11 -30 16 -23 9 -48 23 -167 97 -25 15
-42 31 -39 35 8 7 2164 5 3803 -4 838 -5 1099 -4 1121 5 42 17 62 68 62 154 1
40 5 104 11 142 5 39 13 92 16 119 l6 49 135 -7 c74 -3 168 -6 209 -6 58 0 73
-3 73 -15 0 -11 11 -15 40 -15 33 0 40 -3 40 -20 0 -17 7 -20 40 -20 33 0 40
-3 40 -20 0 -17 7 -20 40 -20 29 0 40 -4 40 -15 0 -11 11 -15 40 -15 29 0 40
-4 40 -15 0 -11 11 -15 40 -15 38 0 40 2 40 30 l0 30 -80 0 -80 0 0 30 c0 28
2 30 40 30 29 0 40 -4 40 -15 0 -12 16 -15 80 -15 l80 0 0 -35 c0 -34 1 -35
40 -35 33 0 40 -3 40 -20 0 -17 7 -20 40 -20 27 0 40 -4 40 -13 0 -15 151 -27
322 -27 71 0 78 -2 78 -20 0 -17 -7 -20 -40 -20 -22 0 -40 -4 -40 -10 0 -5 18
-10 40 -10 22 0 40 5 40 10 0 6 18 10 40 10 29 0 40 -4 40 -15 0 -12 20 -15
120 -15 100 0 120 3 120 15 0 11 11 15 40 15 31 0 40 -4 40 -17 0 -35 10 -4
14 41 5 67 14 68 12 1 -1 -31 -6 -59 -12 -63 -6 -4 -8 -30 -4 -67 4 -33 8 -47
9 -32 0 18 5 26 12 21 9 -5 10 6 7 39 -3 26 -2 44 3 41 16 -10 -1 102 -57 366
-30 145 -105 412 -167 595 -102 301 -191 514 -338 805 -182 361 -313 573 -560
905 -108 146 -136 178 -149 170 -5 -3 -7 4 -5 15 3 13 -4 26 -21 36 -13 9 -24
20 -24 25 0 9 -33 50 -76 95 -12 12 -31 36 -44 53 -12 17 -26 29 -31 26 -5 -4
-9 1 -9 10 0 9 -5 13 -10 10 -6 -3 -17 1 -26 9 -8 9 -20 16 -26 16 -6 0 5 -16
25 -35 24 -23 41 -33 52 -28 15 5 15 3 4 -16 -19 -30 -99 -31 -99 -1 0 17 -7
20 -40 20 -29 0 -40 4 -40 15 0 12 -16 15 -80 15 -64 0 -80 3 -80 15 0 11 -11
15 -40 15 -29 0 -40 -4 -40 -15 0 -11 -11 -15 -40 -15 -29 0 -40 -4 -40 -15 0
-11 -11 -15 -40 -15 -33 0 -40 3 -40 20 0 17 -7 20 -40 20 -33 0 -40 3 -40 20
0 17 -7 20 -40 20 -29 0 -40 4 -40 15 0 12 -16 15 -80 15 -64 0 -80 3 -80 15
0 11 -11 15 -40 15 -38 0 -40 -2 -40 -30 l0 -30 80 0 80 0 0 -30 c0 -28 -2
-30 -40 -30 -29 0 -40 4 -40 15 0 12 -16 15 -80 15 l-80 0 0 35 0 35 -80 0
c-73 0 -80 2 -80 20 0 17 -7 20 -40 20 -29 0 -40 4 -40 15 0 12 -16 15 -80 15
-64 0 -80 3 -80 15 0 11 -11 15 -40 15 -38 0 -40 -2 -40 -30 l0 -30 80 0 c64
0 80 -3 80 -15 0 -12 -20 -15 -120 -15 l-120 0 0 35 0 35 -80 0 c-73 0 -80 2
-80 20 0 17 -7 20 -40 20 -29 0 -40 4 -40 15 0 12 -16 15 -80 15 -64 0 -80 3
-80 15 0 11 -11 15 -40 15 -38 0 -40 -2 -40 -30 l0 -30 80 0 c64 0 80 -3 80
-15 0 -12 -20 -15 -120 -15 l-120 0 0 35 0 35 -80 0 -80 0 0 35 0 35 -120 0
c-100 0 -120 3 -120 15 0 11 -11 15 -40 15 -38 0 -40 -2 -40 -30 l0 -30 80 0
c64 0 80 -3 80 -15 0 -12 -20 -15 -120 -15 l-120 0 0 35 c0 34 -1 35 -40 35
-33 0 -40 3 -40 20 0 17 -7 20 -40 20 -29 0 -40 4 -40 15 0 12 -16 15 -80 15
-64 0 -80 3 -80 15 0 11 -11 15 -40 15 -30 0 -40 -4 -40 -16 0 -15 -9 -16 -61
-10 -34 3 -106 6 -160 6 l-99 0 0 35 0 35 -80 0 c-64 0 -80 3 -80 15 0 11 -11
15 -40 15 -38 0 -40 -2 -40 -30 l0 -30 80 0 80 0 0 -30 c0 -28 -2 -30 -40 -30
-29 0 -40 4 -40 15 0 12 -16 15 -80 15 l-80 0 0 35 0 35 -80 0 c-73 0 -80 2
-80 20 0 17 -7 20 -40 20 -29 0 -40 4 -40 15 0 12 -16 15 -80 15 -64 0 -80 3
-80 15 0 11 -11 15 -40 15 -38 0 -40 -2 -40 -30 l0 -30 80 0 c64 0 80 -3 80
-15 0 -12 -20 -15 -120 -15 l-120 0 0 35 0 35 -80 0 c-73 0 -80 2 -80 20 0 17
-7 20 -40 20 -29 0 -40 4 -40 15 0 12 -16 15 -80 15 -64 0 -80 3 -80 15 0 11
-11 15 -40 15 -38 0 -40 -2 -40 -30 l0 -30 80 0 c64 0 80 -3 80 -15 0 -12 -16
-15 -80 -15 -64 0 -80 3 -80 15 0 11 -11 15 -40 15 -33 0 -40 3 -40 20 0 17
-7 20 -40 20 -33 0 -40 3 -40 20 0 17 -7 20 -40 20 -29 0 -40 4 -40 15 0 12
-16 15 -80 15 -64 0 -80 3 -80 15 0 12 -16 15 -80 15 -68 0 -80 -3 -80 -16 0
-15 -9 -16 -61 -10 -34 3 -70 6 -80 6 -12 0 -19 7 -19 20 0 17 -7 20 -40 20
-29 0 -40 4 -40 15 0 12 -16 15 -80 15 -64 0 -80 3 -80 15 0 11 -11 15 -40 15
-38 0 -40 -2 -40 -30 l0 -30 80 0 c64 0 80 -3 80 -15 0 -12 -20 -15 -120 -15
l-120 0 0 35 0 35 -80 0 c-73 0 -80 2 -80 20 0 17 -7 20 -40 20 -29 0 -40 4
-40 15 0 12 -16 15 -80 15 -64 0 -80 3 -80 15 0 11 -11 15 -40 15 -38 0 -40
-2 -40 -30 l0 -30 80 0 c64 0 80 -3 80 -15 0 -12 -20 -15 -120 -15 l-120 0 0
35 0 35 -80 0 c-73 0 -80 2 -80 20 0 17 -7 20 -40 20 -29 0 -40 4 -40 15 0 12
-16 15 -80 15 -64 0 -80 3 -80 15 0 11 -11 15 -40 15 -38 0 -40 -2 -40 -30 l0
-30 80 0 80 0 0 -30 c0 -28 -2 -30 -40 -30 -29 0 -40 4 -40 15 0 12 -16 15
-80 15 l-80 0 0 35 0 35 -80 0 -80 0 0 35 0 35 -160 0 c-136 0 -160 -2 -160
-15 0 -11 -11 -15 -40 -15 -33 0 -40 3 -40 20 0 18 -7 20 -80 20 -78 0 -80 1
-80 24 0 20 -4 23 -22 19 -19 -4 -20 -3 -8 6 19 14 2 13 -27 -1z m3470 -1089
c78 -55 202 -141 275 -192 73 -51 181 -126 240 -168 91 -64 1032 -722 1232
-861 36 -24 205 -142 375 -261 171 -119 364 -254 429 -299 65 -46 180 -126
255 -178 75 -53 195 -136 266 -186 72 -50 242 -169 379 -265 137 -96 278 -194
315 -219 l66 -45 3 -255 2 -255 -4085 0 -4085 0 0 257 0 258 463 306 c413 275
759 505 977 651 41 28 210 139 375 248 367 242 1188 786 1859 1233 275 182
504 332 508 332 5 0 72 -45 151 -101z m-2643 -4841 l0 -1363 -432 2 -433 2 -3
1361 -2 1360 435 0 435 0 0 -1362z m-2770 297 l0 -55 -40 0 -40 0 0 40 0 40
-160 0 c-136 0 -160 2 -160 15 0 13 29 15 200 15 l200 0 0 -55z"/>
<path d="M6530 10362 l-35 -7 -3 -116 -3 -116 -40 -6 c-58 -8 -196 -77 -250
-125 -101 -91 -149 -201 -149 -340 1 -234 127 -360 481 -481 152 -53 213 -88
237 -137 23 -50 10 -80 -51 -111 -47 -24 -62 -27 -167 -27 -122 0 -181 10
-295 51 -97 35 -134 43 -141 31 -8 -12 -74 -307 -74 -330 0 -27 276 -107 372
-108 68 0 68 0 68 -126 l0 -114 140 0 140 0 1 78 c0 42 0 100 -1 127 l-1 51
63 14 c91 20 212 84 273 144 103 102 140 202 133 360 -4 87 -9 110 -36 167
-65 135 -167 208 -424 299 -145 52 -244 106 -258 141 -17 39 8 82 60 103 64
25 225 22 343 -8 52 -13 109 -32 127 -41 17 -9 33 -15 35 -13 2 2 22 78 44
168 40 162 41 165 21 181 -39 33 -191 70 -296 72 l-64 2 0 102 c0 71 -4 104
-12 110 -17 10 -192 13 -238 5z m-264 -1563 c3 -6 0 -15 -7 -20 -9 -6 -2 -7
18 -3 18 4 39 2 46 -4 7 -6 43 -10 80 -10 41 1 71 -3 76 -10 4 -7 75 -13 204
-18 155 -6 197 -10 197 -21 0 -18 74 -18 89 0 6 8 8 17 4 20 -3 4 1 7 10 7 9
0 17 5 17 10 0 6 -27 10 -60 10 -47 0 -60 3 -60 15 0 17 11 18 98 9 34 -4 63
-12 66 -19 3 -9 -2 -11 -16 -7 -14 3 -19 1 -14 -6 4 -7 2 -12 -3 -12 -6 0 -11
-7 -11 -15 0 -8 -6 -15 -14 -15 -9 0 -12 -7 -9 -21 5 -18 2 -19 -22 -13 -20 5
-26 4 -21 -5 5 -7 -4 -13 -23 -17 -17 -4 -31 -10 -31 -15 0 -5 -8 -9 -19 -9
-10 0 -29 -8 -42 -18 -26 -21 -72 -36 -63 -21 3 5 -2 9 -11 9 -9 0 -14 -4 -10
-9 3 -5 1 -12 -4 -15 -5 -3 -7 -15 -4 -26 3 -13 -1 -22 -11 -26 -14 -5 -15
-20 -11 -100 6 -109 7 -108 -100 -102 l-60 3 -3 89 c-4 138 -34 163 -198 172
-43 2 -89 12 -118 25 -26 11 -55 18 -64 14 -9 -3 -13 -3 -10 1 4 3 0 14 -9 22
-10 11 -12 17 -4 20 6 2 9 8 6 13 -3 5 -3 24 1 44 6 34 8 35 53 36 l46 1 -42
10 c-62 13 -58 38 6 38 28 0 53 -5 57 -11z"/>
<path d="M12728 7560 c-3 -8 -16 -51 -28 -95 -22 -78 -64 -193 -81 -224 -4 -9
-24 -51 -43 -94 -19 -42 -44 -90 -55 -106 -12 -16 -21 -36 -21 -44 0 -9 -4
-17 -9 -19 -4 -1 -33 -39 -62 -83 -62 -91 -69 -101 -126 -164 -29 -32 -37 -47
-27 -49 9 -2 14 -17 14 -43 l0 -40 -51 4 c-27 2 -52 0 -54 -3 -2 -4 9 -20 25
-35 24 -23 30 -25 30 -12 0 15 12 17 80 17 64 0 80 -3 80 -15 0 -11 11 -15 40
-15 38 0 40 2 40 30 0 28 2 30 40 30 33 0 40 -3 40 -20 0 -18 7 -20 80 -20 44
0 81 3 81 8 1 4 5 59 9 122 l8 115 -4 -145 c-2 -91 1 -139 6 -130 7 10 10 -9
11 -60 l2 -75 11 100 c14 136 12 639 -4 805 -7 74 -16 167 -19 205 -4 39 -10
63 -13 55z"/>
<path d="M9900 6103 c0 -740 3 -1344 6 -1341 3 3 8 212 10 465 3 252 9 539 13
638 5 140 4 183 -6 193 -10 10 -11 88 -8 355 4 352 7 961 6 1010 -1 15 -5 27
-11 27 -7 0 -10 -456 -10 -1347z"/>
<path d="M9009 7425 c-1 -11 0 -278 1 -593 1 -343 -2 -577 -7 -585 -6 -7 -7
-93 -2 -217 4 -113 8 -356 10 -540 1 -248 4 -309 10 -235 10 139 9 2145 -1
2170 l-9 20 -2 -20z"/>
<path d="M7647 7423 c-4 -3 -7 -159 -7 -345 0 -187 -4 -337 -8 -334 -13 8 -39
-13 -26 -21 7 -5 11 -101 13 -273 1 -146 7 -287 12 -314 5 -27 10 -204 10
-395 1 -190 5 -490 8 -666 5 -199 8 184 9 1018 1 735 1 1337 -1 1337 -2 0 -7
-3 -10 -7z"/>
<path d="M8532 6133 c1 -1012 3 -1195 9 -833 10 699 18 1053 24 1058 2 3 -2
14 -10 25 -11 16 -13 101 -8 527 5 378 3 509 -5 514 -9 5 -12 -310 -10 -1291z"/>
<path d="M6085 6045 c-11 -23 -11 13 -1 -718 8 -541 9 -569 28 -592 l19 -25
490 0 490 0 24 25 25 24 1 278 c1 153 4 431 8 618 6 355 5 417 -10 394 -5 -8
-9 -300 -9 -649 l0 -635 -525 0 -525 0 -2 650 c-2 436 -6 643 -13 630z"/>
<path d="M7670 4740 c0 -11 9 -24 19 -30 13 -6 159 -10 408 -10 362 0 390 2
412 19 l24 19 -21 11 c-15 8 -142 11 -432 11 -398 -1 -410 -1 -410 -20z"/>
<path d="M9050 4750 c-12 -7 -12 -13 -4 -27 10 -17 40 -18 417 -21 359 -2 407
0 421 14 23 23 20 31 -15 38 -52 10 -802 7 -819 -4z"/>
<path d="M2804 4479 c-5 -8 -7 -123 -5 -268 3 -282 6 -295 66 -307 17 -3 659
-1 1426 5 767 6 2445 11 3730 11 l2336 0 27 21 26 20 -2 247 -2 247 -6 -250
c-3 -137 -9 -244 -13 -237 -12 17 -7527 18 -7545 0 -9 -9 -12 43 -13 238 0
246 -6 303 -25 273z"/>
<path d="M2327 3645 c-10 -22 -10 -468 -1 -526 4 -25 14 -41 30 -49 19 -11
272 -12 1271 -5 687 4 2616 9 4287 11 3129 4 3064 3 3053 39 -3 7 -1448 10
-4310 10 -2369 0 -4308 0 -4309 0 -1 0 -5 122 -8 270 -3 161 -8 262 -13 250z"/>
</g>
</svg>
